<mxfile host="65bd71144e">
    <diagram id="w9d65mFprSii6VmmVjMo" name="Страница 1">
        <mxGraphModel dx="1018" dy="707" grid="1" gridSize="10" guides="1" tooltips="1" connect="1" arrows="1" fold="1" page="1" pageScale="1" pageWidth="827" pageHeight="1169" math="0" shadow="0">
            <root>
                <mxCell id="0"/>
                <mxCell id="1" parent="0"/>
                <mxCell id="13" value="" style="rounded=1;whiteSpace=wrap;html=1;fontSize=12;" parent="1" vertex="1">
                    <mxGeometry x="40" y="170" width="430" height="240" as="geometry"/>
                </mxCell>
                <mxCell id="14" value="Поле календаря" style="text;html=1;align=center;verticalAlign=middle;resizable=0;points=[];autosize=1;strokeColor=none;fillColor=none;fontSize=12;" parent="1" vertex="1">
                    <mxGeometry x="60" y="140" width="110" height="20" as="geometry"/>
                </mxCell>
                <mxCell id="15" value="" style="rounded=1;whiteSpace=wrap;html=1;fontSize=12;" parent="1" vertex="1">
                    <mxGeometry x="520" y="170" width="260" height="60" as="geometry"/>
                </mxCell>
                <mxCell id="16" value="Поле для выбора времени" style="text;html=1;align=center;verticalAlign=middle;resizable=0;points=[];autosize=1;strokeColor=none;fillColor=none;fontSize=12;" parent="1" vertex="1">
                    <mxGeometry x="530" y="140" width="160" height="20" as="geometry"/>
                </mxCell>
                <mxCell id="17" value="Далее" style="rounded=1;whiteSpace=wrap;html=1;fontSize=12;" parent="1" vertex="1">
                    <mxGeometry x="680" y="340" width="120" height="60" as="geometry"/>
                </mxCell>
                <mxCell id="18" value="Отмена" style="rounded=1;whiteSpace=wrap;html=1;fontSize=12;" parent="1" vertex="1">
                    <mxGeometry x="510" y="340" width="120" height="60" as="geometry"/>
                </mxCell>
                <mxCell id="19" value="" style="endArrow=none;html=1;fontSize=12;" parent="1" edge="1">
                    <mxGeometry width="50" height="50" relative="1" as="geometry">
                        <mxPoint x="40" y="440" as="sourcePoint"/>
                        <mxPoint x="790" y="440" as="targetPoint"/>
                    </mxGeometry>
                </mxCell>
                <mxCell id="20" value="" style="group" parent="1" vertex="1" connectable="0">
                    <mxGeometry x="40" y="10" width="750" height="100" as="geometry"/>
                </mxCell>
                <mxCell id="4" value="" style="rounded=1;whiteSpace=wrap;html=1;" parent="20" vertex="1">
                    <mxGeometry y="20" width="750" height="80" as="geometry"/>
                </mxCell>
                <mxCell id="5" value="Шапка" style="text;html=1;align=center;verticalAlign=middle;resizable=0;points=[];autosize=1;strokeColor=none;fillColor=none;" parent="20" vertex="1">
                    <mxGeometry width="50" height="20" as="geometry"/>
                </mxCell>
                <mxCell id="8" value="Выбрать дату&lt;br style=&quot;font-size: 14px;&quot;&gt;и время&amp;nbsp; заказа" style="rounded=1;whiteSpace=wrap;html=1;fontStyle=1;fontSize=14;" parent="20" vertex="1">
                    <mxGeometry x="30" y="30" width="150" height="60" as="geometry"/>
                </mxCell>
                <mxCell id="10" value="Выбрать столик и категорию размещения" style="rounded=1;whiteSpace=wrap;html=1;fontStyle=0;fontSize=12;" parent="20" vertex="1">
                    <mxGeometry x="210" y="30" width="140" height="60" as="geometry"/>
                </mxCell>
                <mxCell id="11" value="Указать Ф.И.О., контактные данные" style="rounded=1;whiteSpace=wrap;html=1;fontStyle=0;fontSize=12;" parent="20" vertex="1">
                    <mxGeometry x="373" y="30" width="160" height="60" as="geometry"/>
                </mxCell>
                <mxCell id="70" value="Подтверждение заказа" style="rounded=1;whiteSpace=wrap;html=1;fontStyle=0;fontSize=12;" parent="20" vertex="1">
                    <mxGeometry x="560" y="30" width="160" height="60" as="geometry"/>
                </mxCell>
                <mxCell id="21" value="" style="group" parent="1" vertex="1" connectable="0">
                    <mxGeometry x="40" y="485" width="750" height="100" as="geometry"/>
                </mxCell>
                <mxCell id="22" value="" style="rounded=1;whiteSpace=wrap;html=1;" parent="21" vertex="1">
                    <mxGeometry y="20" width="750" height="80" as="geometry"/>
                </mxCell>
                <mxCell id="23" value="Шапка" style="text;html=1;align=center;verticalAlign=middle;resizable=0;points=[];autosize=1;strokeColor=none;fillColor=none;" parent="21" vertex="1">
                    <mxGeometry width="50" height="20" as="geometry"/>
                </mxCell>
                <mxCell id="24" value="Выбрать дату&lt;br style=&quot;font-size: 12px;&quot;&gt;и время&amp;nbsp; заказа" style="rounded=1;whiteSpace=wrap;html=1;fontStyle=0;fontSize=12;" parent="21" vertex="1">
                    <mxGeometry x="30" y="30" width="150" height="60" as="geometry"/>
                </mxCell>
                <mxCell id="25" value="Выбрать столик и категорию размещения" style="rounded=1;whiteSpace=wrap;html=1;fontStyle=1;fontSize=14;" parent="21" vertex="1">
                    <mxGeometry x="210" y="30" width="140" height="60" as="geometry"/>
                </mxCell>
                <mxCell id="26" value="Указать Ф.И.О., контактные данные" style="rounded=1;whiteSpace=wrap;html=1;fontStyle=0;fontSize=12;" parent="21" vertex="1">
                    <mxGeometry x="380" y="30" width="160" height="60" as="geometry"/>
                </mxCell>
                <mxCell id="71" value="Подтверждение заказа" style="rounded=1;whiteSpace=wrap;html=1;fontStyle=0;fontSize=12;" parent="21" vertex="1">
                    <mxGeometry x="570" y="30" width="160" height="60" as="geometry"/>
                </mxCell>
                <mxCell id="28" value="" style="rounded=1;whiteSpace=wrap;html=1;fontSize=14;" parent="1" vertex="1">
                    <mxGeometry x="40" y="640" width="550" height="310" as="geometry"/>
                </mxCell>
                <mxCell id="29" value="Карта размещения зон" style="text;html=1;align=center;verticalAlign=middle;resizable=0;points=[];autosize=1;strokeColor=none;fillColor=none;fontSize=14;" parent="1" vertex="1">
                    <mxGeometry x="40" y="610" width="160" height="20" as="geometry"/>
                </mxCell>
                <mxCell id="30" value="" style="rounded=1;whiteSpace=wrap;html=1;fontSize=14;" parent="1" vertex="1">
                    <mxGeometry x="80" y="670" width="290" height="240" as="geometry"/>
                </mxCell>
                <mxCell id="32" value="Зона для не курящих" style="rounded=1;whiteSpace=wrap;html=1;fontSize=14;" parent="1" vertex="1">
                    <mxGeometry x="400" y="670" width="170" height="240" as="geometry"/>
                </mxCell>
                <mxCell id="33" value="&lt;br&gt;&lt;br&gt;&lt;br&gt;Зона для курящих" style="rounded=1;whiteSpace=wrap;html=1;fontSize=14;" parent="1" vertex="1">
                    <mxGeometry x="414" y="680" width="146" height="90" as="geometry"/>
                </mxCell>
                <mxCell id="35" value="Веранда" style="text;html=1;align=center;verticalAlign=middle;resizable=0;points=[];autosize=1;strokeColor=none;fillColor=none;fontSize=14;" parent="1" vertex="1">
                    <mxGeometry x="399" y="650" width="70" height="20" as="geometry"/>
                </mxCell>
                <mxCell id="36" value="Общий зал" style="text;html=1;align=center;verticalAlign=middle;resizable=0;points=[];autosize=1;strokeColor=none;fillColor=none;fontSize=14;" parent="1" vertex="1">
                    <mxGeometry x="90" y="650" width="90" height="20" as="geometry"/>
                </mxCell>
                <mxCell id="37" value="VIP- столики" style="rounded=1;whiteSpace=wrap;html=1;fontSize=14;" parent="1" vertex="1">
                    <mxGeometry x="90" y="695" width="50" height="190" as="geometry"/>
                </mxCell>
                <mxCell id="38" value="Выбрана зона:" style="rounded=1;whiteSpace=wrap;html=1;fontSize=14;" parent="1" vertex="1">
                    <mxGeometry x="600" y="610" width="180" height="60" as="geometry"/>
                </mxCell>
                <mxCell id="39" value="Выбран столик:" style="rounded=1;whiteSpace=wrap;html=1;fontSize=14;" parent="1" vertex="1">
                    <mxGeometry x="600" y="695" width="180" height="60" as="geometry"/>
                </mxCell>
                <mxCell id="40" value="3" style="rounded=1;whiteSpace=wrap;html=1;fontSize=14;" parent="1" vertex="1">
                    <mxGeometry x="160" y="695" width="40" height="40" as="geometry"/>
                </mxCell>
                <mxCell id="41" value="6" style="rounded=1;whiteSpace=wrap;html=1;fontSize=14;" parent="1" vertex="1">
                    <mxGeometry x="230" y="695" width="40" height="40" as="geometry"/>
                </mxCell>
                <mxCell id="42" value="9" style="rounded=1;whiteSpace=wrap;html=1;fontSize=14;" parent="1" vertex="1">
                    <mxGeometry x="310" y="695" width="40" height="40" as="geometry"/>
                </mxCell>
                <mxCell id="43" value="10" style="rounded=1;whiteSpace=wrap;html=1;fontSize=14;" parent="1" vertex="1">
                    <mxGeometry x="310" y="770" width="40" height="40" as="geometry"/>
                </mxCell>
                <mxCell id="44" value="7" style="rounded=1;whiteSpace=wrap;html=1;fontSize=14;" parent="1" vertex="1">
                    <mxGeometry x="230" y="770" width="40" height="40" as="geometry"/>
                </mxCell>
                <mxCell id="45" value="4" style="rounded=1;whiteSpace=wrap;html=1;fontSize=14;" parent="1" vertex="1">
                    <mxGeometry x="160" y="770" width="40" height="40" as="geometry"/>
                </mxCell>
                <mxCell id="46" value="5" style="rounded=1;whiteSpace=wrap;html=1;fontSize=14;" parent="1" vertex="1">
                    <mxGeometry x="160" y="840" width="40" height="40" as="geometry"/>
                </mxCell>
                <mxCell id="47" value="8" style="rounded=1;whiteSpace=wrap;html=1;fontSize=14;" parent="1" vertex="1">
                    <mxGeometry x="235" y="840" width="40" height="40" as="geometry"/>
                </mxCell>
                <mxCell id="48" value="11" style="rounded=1;whiteSpace=wrap;html=1;fontSize=14;" parent="1" vertex="1">
                    <mxGeometry x="310" y="840" width="40" height="40" as="geometry"/>
                </mxCell>
                <mxCell id="49" value="14" style="rounded=1;whiteSpace=wrap;html=1;fontSize=14;" parent="1" vertex="1">
                    <mxGeometry x="414" y="810" width="40" height="40" as="geometry"/>
                </mxCell>
                <mxCell id="50" value="15" style="rounded=1;whiteSpace=wrap;html=1;fontSize=14;" parent="1" vertex="1">
                    <mxGeometry x="465" y="810" width="40" height="40" as="geometry"/>
                </mxCell>
                <mxCell id="51" value="16" style="rounded=1;whiteSpace=wrap;html=1;fontSize=14;" parent="1" vertex="1">
                    <mxGeometry x="520" y="810" width="40" height="40" as="geometry"/>
                </mxCell>
                <mxCell id="52" value="18" style="rounded=1;whiteSpace=wrap;html=1;fontSize=14;" parent="1" vertex="1">
                    <mxGeometry x="490" y="860" width="40" height="40" as="geometry"/>
                </mxCell>
                <mxCell id="53" value="17" style="rounded=1;whiteSpace=wrap;html=1;fontSize=14;" parent="1" vertex="1">
                    <mxGeometry x="430" y="860" width="40" height="40" as="geometry"/>
                </mxCell>
                <mxCell id="54" value="12" style="rounded=1;whiteSpace=wrap;html=1;fontSize=14;" parent="1" vertex="1">
                    <mxGeometry x="429" y="690" width="40" height="40" as="geometry"/>
                </mxCell>
                <mxCell id="55" value="13" style="rounded=1;whiteSpace=wrap;html=1;fontSize=14;" parent="1" vertex="1">
                    <mxGeometry x="500" y="690" width="40" height="40" as="geometry"/>
                </mxCell>
                <mxCell id="57" value="1" style="rounded=1;whiteSpace=wrap;html=1;fontSize=14;" parent="1" vertex="1">
                    <mxGeometry x="95" y="720" width="40" height="40" as="geometry"/>
                </mxCell>
                <mxCell id="58" value="2" style="rounded=1;whiteSpace=wrap;html=1;fontSize=14;" parent="1" vertex="1">
                    <mxGeometry x="95" y="830" width="40" height="40" as="geometry"/>
                </mxCell>
                <mxCell id="59" value="Назад" style="rounded=1;whiteSpace=wrap;html=1;fontSize=12;" parent="1" vertex="1">
                    <mxGeometry x="610" y="880" width="90" height="50" as="geometry"/>
                </mxCell>
                <mxCell id="60" value="Далее" style="rounded=1;whiteSpace=wrap;html=1;fontSize=12;" parent="1" vertex="1">
                    <mxGeometry x="710" y="880" width="90" height="50" as="geometry"/>
                </mxCell>
                <mxCell id="61" value="" style="endArrow=none;html=1;fontSize=14;" parent="1" edge="1">
                    <mxGeometry width="50" height="50" relative="1" as="geometry">
                        <mxPoint x="40" y="1000" as="sourcePoint"/>
                        <mxPoint x="790" y="1000" as="targetPoint"/>
                    </mxGeometry>
                </mxCell>
                <mxCell id="63" value="" style="group" parent="1" vertex="1" connectable="0">
                    <mxGeometry x="40" y="1190" width="750" height="120" as="geometry"/>
                </mxCell>
                <mxCell id="64" value="" style="rounded=1;whiteSpace=wrap;html=1;" parent="63" vertex="1">
                    <mxGeometry y="20" width="750" height="80" as="geometry"/>
                </mxCell>
                <mxCell id="65" value="Шапка" style="text;html=1;align=center;verticalAlign=middle;resizable=0;points=[];autosize=1;strokeColor=none;fillColor=none;" parent="63" vertex="1">
                    <mxGeometry width="50" height="20" as="geometry"/>
                </mxCell>
                <mxCell id="66" value="Выбрать дату&lt;br style=&quot;font-size: 12px;&quot;&gt;и время&amp;nbsp; заказа" style="rounded=1;whiteSpace=wrap;html=1;fontStyle=0;fontSize=12;" parent="63" vertex="1">
                    <mxGeometry x="30" y="30" width="150" height="60" as="geometry"/>
                </mxCell>
                <mxCell id="67" value="Выбрать столик и категорию размещения" style="rounded=1;whiteSpace=wrap;html=1;fontStyle=0;fontSize=12;" parent="63" vertex="1">
                    <mxGeometry x="210" y="30" width="140" height="60" as="geometry"/>
                </mxCell>
                <mxCell id="68" value="&lt;font style=&quot;font-size: 14px&quot;&gt;&lt;b&gt;Указать Ф.И.О., контактные данные&lt;/b&gt;&lt;/font&gt;" style="rounded=1;whiteSpace=wrap;html=1;fontStyle=0;fontSize=12;" parent="63" vertex="1">
                    <mxGeometry x="380" y="30" width="160" height="60" as="geometry"/>
                </mxCell>
                <mxCell id="72" value="Подтверждение заказа" style="rounded=1;whiteSpace=wrap;html=1;fontStyle=0;fontSize=12;" parent="63" vertex="1">
                    <mxGeometry x="570" y="30" width="160" height="60" as="geometry"/>
                </mxCell>
                <mxCell id="73" value="" style="rounded=1;whiteSpace=wrap;html=1;fontSize=14;" parent="1" vertex="1">
                    <mxGeometry x="40" y="1360" width="460" height="330" as="geometry"/>
                </mxCell>
                <mxCell id="74" value="Поле для указания Ф.И.О. и контактов" style="text;html=1;align=center;verticalAlign=middle;resizable=0;points=[];autosize=1;strokeColor=none;fillColor=none;fontSize=14;" parent="1" vertex="1">
                    <mxGeometry x="60" y="1330" width="270" height="20" as="geometry"/>
                </mxCell>
                <mxCell id="75" value="Подтвердить данные" style="rounded=1;whiteSpace=wrap;html=1;fontSize=14;" parent="1" vertex="1">
                    <mxGeometry x="344" y="1630" width="110" height="40" as="geometry"/>
                </mxCell>
                <mxCell id="76" value="Назад" style="rounded=1;whiteSpace=wrap;html=1;fontSize=12;" parent="1" vertex="1">
                    <mxGeometry x="580" y="1630" width="90" height="50" as="geometry"/>
                </mxCell>
                <mxCell id="77" value="Далее" style="rounded=1;whiteSpace=wrap;html=1;fontSize=12;" parent="1" vertex="1">
                    <mxGeometry x="680" y="1630" width="90" height="50" as="geometry"/>
                </mxCell>
                <mxCell id="78" value="" style="rounded=1;whiteSpace=wrap;html=1;fontSize=14;" parent="1" vertex="1">
                    <mxGeometry x="565" y="1360" width="220" height="250" as="geometry"/>
                </mxCell>
                <mxCell id="79" value="Проверьте свои данные:" style="text;html=1;align=center;verticalAlign=middle;resizable=0;points=[];autosize=1;strokeColor=none;fillColor=none;fontSize=14;" parent="1" vertex="1">
                    <mxGeometry x="580" y="1330" width="180" height="20" as="geometry"/>
                </mxCell>
                <mxCell id="80" value="" style="group" parent="1" vertex="1" connectable="0">
                    <mxGeometry x="50" y="1770" width="750" height="120" as="geometry"/>
                </mxCell>
                <mxCell id="81" value="" style="rounded=1;whiteSpace=wrap;html=1;" parent="80" vertex="1">
                    <mxGeometry y="20" width="750" height="80" as="geometry"/>
                </mxCell>
                <mxCell id="82" value="Шапка" style="text;html=1;align=center;verticalAlign=middle;resizable=0;points=[];autosize=1;strokeColor=none;fillColor=none;" parent="80" vertex="1">
                    <mxGeometry width="50" height="20" as="geometry"/>
                </mxCell>
                <mxCell id="83" value="Выбрать дату&lt;br style=&quot;font-size: 12px;&quot;&gt;и время&amp;nbsp; заказа" style="rounded=1;whiteSpace=wrap;html=1;fontStyle=0;fontSize=12;" parent="80" vertex="1">
                    <mxGeometry x="30" y="30" width="150" height="60" as="geometry"/>
                </mxCell>
                <mxCell id="84" value="Выбрать столик и категорию размещения" style="rounded=1;whiteSpace=wrap;html=1;fontStyle=0;fontSize=12;" parent="80" vertex="1">
                    <mxGeometry x="210" y="30" width="140" height="60" as="geometry"/>
                </mxCell>
                <mxCell id="85" value="&lt;font style=&quot;font-size: 12px;&quot;&gt;&lt;span style=&quot;font-size: 12px;&quot;&gt;Указать Ф.И.О., контактные данные&lt;/span&gt;&lt;/font&gt;" style="rounded=1;whiteSpace=wrap;html=1;fontStyle=0;fontSize=12;" parent="80" vertex="1">
                    <mxGeometry x="380" y="30" width="160" height="60" as="geometry"/>
                </mxCell>
                <mxCell id="86" value="&lt;b&gt;&lt;font style=&quot;font-size: 14px&quot;&gt;Подтверждение заказа&lt;/font&gt;&lt;/b&gt;" style="rounded=1;whiteSpace=wrap;html=1;fontStyle=0;fontSize=12;" parent="80" vertex="1">
                    <mxGeometry x="570" y="30" width="160" height="60" as="geometry"/>
                </mxCell>
                <mxCell id="87" value="" style="endArrow=none;html=1;fontSize=14;" parent="1" edge="1">
                    <mxGeometry width="50" height="50" relative="1" as="geometry">
                        <mxPoint x="40" y="1720" as="sourcePoint"/>
                        <mxPoint x="800" y="1720" as="targetPoint"/>
                    </mxGeometry>
                </mxCell>
                <mxCell id="88" value="" style="rounded=1;whiteSpace=wrap;html=1;fontSize=14;" parent="1" vertex="1">
                    <mxGeometry x="50" y="1920" width="610" height="340" as="geometry"/>
                </mxCell>
                <mxCell id="89" value="Проверьте данные заказа:" style="text;html=1;align=center;verticalAlign=middle;resizable=0;points=[];autosize=1;strokeColor=none;fillColor=none;fontSize=14;" parent="1" vertex="1">
                    <mxGeometry x="60" y="1900" width="190" height="20" as="geometry"/>
                </mxCell>
                <mxCell id="90" value="" style="rounded=1;whiteSpace=wrap;html=1;fontSize=14;" parent="1" vertex="1">
                    <mxGeometry x="295" y="1940" width="170" height="30" as="geometry"/>
                </mxCell>
                <mxCell id="91" value="" style="rounded=1;whiteSpace=wrap;html=1;fontSize=14;" parent="1" vertex="1">
                    <mxGeometry x="295" y="1990" width="170" height="30" as="geometry"/>
                </mxCell>
                <mxCell id="92" value="" style="rounded=1;whiteSpace=wrap;html=1;fontSize=14;" parent="1" vertex="1">
                    <mxGeometry x="295" y="2040" width="170" height="30" as="geometry"/>
                </mxCell>
                <mxCell id="93" value="" style="rounded=1;whiteSpace=wrap;html=1;fontSize=14;" parent="1" vertex="1">
                    <mxGeometry x="295" y="2090" width="170" height="30" as="geometry"/>
                </mxCell>
                <mxCell id="94" value="" style="rounded=1;whiteSpace=wrap;html=1;fontSize=14;" parent="1" vertex="1">
                    <mxGeometry x="295" y="2140" width="170" height="30" as="geometry"/>
                </mxCell>
                <mxCell id="95" value="" style="rounded=1;whiteSpace=wrap;html=1;fontSize=14;" parent="1" vertex="1">
                    <mxGeometry x="295" y="2190" width="170" height="30" as="geometry"/>
                </mxCell>
                <mxCell id="96" value="Ф.И.О." style="rounded=1;whiteSpace=wrap;html=1;fontSize=14;" parent="1" vertex="1">
                    <mxGeometry x="90" y="1940" width="170" height="30" as="geometry"/>
                </mxCell>
                <mxCell id="97" value="количество гостей" style="rounded=1;whiteSpace=wrap;html=1;fontSize=14;" parent="1" vertex="1">
                    <mxGeometry x="90" y="1990" width="170" height="30" as="geometry"/>
                </mxCell>
                <mxCell id="98" value="Категория размещения" style="rounded=1;whiteSpace=wrap;html=1;fontSize=14;" parent="1" vertex="1">
                    <mxGeometry x="90" y="2040" width="170" height="30" as="geometry"/>
                </mxCell>
                <mxCell id="99" value="Номер столика" style="rounded=1;whiteSpace=wrap;html=1;fontSize=14;" parent="1" vertex="1">
                    <mxGeometry x="90" y="2090" width="170" height="30" as="geometry"/>
                </mxCell>
                <mxCell id="100" value="Дата и время заказа" style="rounded=1;whiteSpace=wrap;html=1;fontSize=14;" parent="1" vertex="1">
                    <mxGeometry x="90" y="2140" width="170" height="30" as="geometry"/>
                </mxCell>
                <mxCell id="101" value="Контакты" style="rounded=1;whiteSpace=wrap;html=1;fontSize=14;" parent="1" vertex="1">
                    <mxGeometry x="90" y="2190" width="170" height="30" as="geometry"/>
                </mxCell>
                <mxCell id="102" value="Назад" style="rounded=1;whiteSpace=wrap;html=1;fontSize=12;" parent="1" vertex="1">
                    <mxGeometry x="510" y="2110" width="90" height="50" as="geometry"/>
                </mxCell>
                <mxCell id="103" value="Подтвердить заказ" style="rounded=1;whiteSpace=wrap;html=1;fontSize=12;" parent="1" vertex="1">
                    <mxGeometry x="510" y="2180" width="90" height="50" as="geometry"/>
                </mxCell>
                <mxCell id="104" value="Отменить заказ" style="rounded=1;whiteSpace=wrap;html=1;fontSize=12;" parent="1" vertex="1">
                    <mxGeometry x="680" y="2190" width="110" height="50" as="geometry"/>
                </mxCell>
                <mxCell id="113" value="Введите колчество гостей:" style="rounded=1;whiteSpace=wrap;html=1;fontSize=14;" vertex="1" parent="1">
                    <mxGeometry x="600" y="780" width="180" height="60" as="geometry"/>
                </mxCell>
            </root>
        </mxGraphModel>
    </diagram>
</mxfile>